<?xml version="1.0" standalone="no"?><!DOCTYPE svg PUBLIC "-//W3C//DTD SVG 1.1//EN"
  "http://www.w3.org/Graphics/SVG/1.1/DTD/svg11.dtd">
<svg t="1668154020216" class="icon" viewBox="0 0 1024 1024" version="1.1" xmlns="http://www.w3.org/2000/svg" p-id="2316"
     xmlns:xlink="http://www.w3.org/1999/xlink" width="200" height="200">
  <path
    d="M640 768v42.666667a128 128 0 0 1-256 0v-170.666667a128 128 0 0 1 256 0v42.666667h-85.333333v-42.666667a42.666667 42.666667 0 0 0-85.333334 0v170.666667a42.666667 42.666667 0 0 0 85.333334 0v-42.666667z m-426.666667-170.666667a42.666667 42.666667 0 0 1 42.666667 42.666667v42.666667H170.666667v-42.666667a42.666667 42.666667 0 0 1 42.666666-42.666667m0-85.333333a128 128 0 0 0-128 128v298.666667h85.333334v-170.666667h85.333333v170.666667h85.333333V640a128 128 0 0 0-128-128z m725.333334 0v426.666667h-85.333334V654.293333l-42.666666 56.746667-42.666667-56.746667V938.666667h-85.333333V512h85.333333l42.666667 56.96L853.333333 512zM725.333333 85.333333l213.333334 213.333334v170.666666h-85.333334v-135.253333L689.92 170.666667H170.666667v298.666666H85.333333V85.333333z"
    p-id="2317" fill="#ffffff"></path>
</svg>