<svg t="1665397152363" class="icon" viewBox="0 0 1024 1024" version="1.1" xmlns="http://www.w3.org/2000/svg" p-id="3731" width="200" height="200"><path d="M419.8 379.42l-1.15 1.98c1.49-0.52 2.94-1.18 4.36-1.98h-3.21zM484 450.51h14.75l-18.03-31.23-11.34 19.64A21.43 21.43 0 0 1 484 450.51zM467.09 442.9l-4.39 7.61h16.34c-2.64-4.05-6.95-6.92-11.95-7.61z" fill="#FFFFFF" p-id="3732"></path><path d="M907.09 656.05c-31.98 41.89-79.1 74.95-134.7 74.95h-81.56c-7.42-2.06-16.46-6.83-16.46-17.95 0-12.02 9.76-16.16 17.32-17.56h64.03c50.49 0 93.28-28.72 122.31-65.11 29.36-34.32 42.39-79.55 42.39-129.13 0-107.28-74.09-186.59-173.4-187.2-43.71-0.27-75.69 20.45-100.29 32.89-14.61-96.47-81.47-199.61-194.54-200.59-113.46-0.98-184.04 115.35-184.04 226.89 0 2.4 0.05 4.77 0.13 7.14h-0.13c-71.3 0-132.76 33.91-152.71 101.33a68.423 68.423 0 0 0-3.63 14.65c-2.21 10.98-6.5 31.98-4.59 52.47 5.86 62.98 28.2 95.92 75.53 124.48 18.51 12.63 38.69 20.89 58.56 22.17h42.83c6.47 1.4 15.76 5.64 16.35 18.5 0.48 10.45-6.47 15.01-12.77 17.01h-71.15c-21.88-1.48-44.1-10.98-64.49-25.52-65.28-41.2-98.92-123.32-83.44-203.7 0.74-5.77 2.08-11.43 4-16.88 22.6-79.68 90.27-134.02 166.88-134.02h0.15c-0.1-2.74-0.14-5.48-0.15-8.22 0-128.39 95.62-232.46 213.57-232.46 106.54 0 189.63 71.13 212.96 184.15 27.09-14.33 55.47-20.39 87.6-20.39 113.45 0 205.41 109.97 205.41 233.46 0.09 54.81-18.43 107.74-51.97 148.64z m0 0" fill="#1088FF" p-id="3733"></path><path d="M499.45 702.2c0.36-1.47 1.23-2.72 2.44-3.48 1.21-0.76 2.64-0.97 3.99-0.58l68.16 19.97c2.76 0.86 4.37 3.97 3.63 6.98-0.74 3.02-3.56 4.83-6.35 4.09l-68.15-19.97c-2.81-0.82-4.47-3.95-3.72-7.01z m145.94-0.64c0.75 3.05-0.91 6.2-3.71 7.02l-68.2 19.95c-2.81 0.82-5.7-1-6.45-4.06-0.75-3.05 0.92-6.2 3.73-7.01l68.2-19.95c2.8-0.82 5.67 1 6.43 4.05z m-75.27 21.52c1.21-0.76 2.64-0.96 3.99-0.57 1.34 0.39 2.49 1.35 3.18 2.67l35.31 66.76c0.98 1.77 1 3.97 0.06 5.77-0.94 1.79-2.69 2.9-4.59 2.89-1.89-0.01-3.64-1.13-4.56-2.93L568.2 730.9c-1.45-2.73-0.59-6.23 1.92-7.82z m1.07-79.44h2.1c2.31 0 4.19 2.04 4.19 4.57v79.46c0 2.52-1.88 4.57-4.19 4.57h-2.1c-2.31 0-4.19-2.05-4.19-4.57v-79.46c0-1.21 0.44-2.37 1.23-3.23 0.78-0.86 1.85-1.34 2.96-1.34z m3.74 79.64c2.5 1.61 3.35 5.12 1.89 7.87l-35.34 67.22c-0.68 1.32-1.82 2.29-3.16 2.69-1.34 0.4-2.78 0.2-3.98-0.56-2.51-1.61-3.35-5.12-1.9-7.87l35.34-67.22c0.68-1.32 1.82-2.29 3.16-2.69 1.34-0.4 2.78-0.2 3.99 0.56z m-28.8-62.76c0.89-0.98 2.11-1.52 3.37-1.52 1.26 0 2.48 0.55 3.37 1.52l22.49 24.49c1.24 1.31 1.74 3.23 1.31 5.06-0.44 1.82-1.74 3.23-3.41 3.71-1.67 0.47-3.45-0.07-4.65-1.42l-22.49-24.5c-1.85-2.02-1.85-5.31 0.01-7.34z m51.96 0.2c-0.89-0.96-2.09-1.51-3.35-1.51-1.25 0-2.46 0.55-3.35 1.51l-22.31 24.3c-1.8 2.02-1.77 5.23 0.05 7.22 1.83 1.99 4.78 2.02 6.64 0.07l22.32-24.3c1.85-2.01 1.84-5.28 0-7.29z m-78.97 111.51c0.32 1.32 1.11 2.44 2.19 3.12 1.08 0.68 2.37 0.86 3.58 0.5l30.38-8.96c2.52-0.74 4.01-3.56 3.35-6.31-0.32-1.32-1.11-2.45-2.19-3.12a4.394 4.394 0 0 0-3.58-0.51l-30.38 8.96c-2.52 0.74-4.02 3.57-3.35 6.32z m44.53 27.75c-1.2 0.35-2.48 0.17-3.56-0.5-1.07-0.68-1.85-1.8-2.17-3.1l-8.01-32.88c-0.66-2.73 0.81-5.52 3.31-6.27 1.19-0.35 2.48-0.17 3.55 0.5 1.08 0.68 1.85 1.8 2.17 3.1l8 32.88c0.68 2.74-0.8 5.54-3.29 6.27z m59.5-28.37c-0.31 1.31-1.08 2.43-2.15 3.11-1.08 0.68-2.36 0.87-3.56 0.51l-30.1-8.95c-2.5-0.76-3.98-3.57-3.31-6.3 0.31-1.31 1.08-2.43 2.16-3.12 1.08-0.68 2.36-0.86 3.56-0.5l30.1 8.94c2.49 0.77 3.96 3.58 3.3 6.31z m-44.11 27.72c1.19 0.35 2.46 0.17 3.53-0.51 1.07-0.68 1.84-1.79 2.14-3.1l7.93-32.84c0.66-2.72-0.81-5.49-3.29-6.25a4.28 4.28 0 0 0-3.53 0.51c-1.07 0.68-1.84 1.79-2.15 3.09l-7.93 32.84c-0.65 2.71 0.81 5.49 3.29 6.25l0.01 0.01z m40.56-121.19c2.28 1.44 3.06 4.61 1.74 7.1l-15.89 30c-1.32 2.49-4.24 3.33-6.52 1.9-2.28-1.44-3.06-4.61-1.74-7.1l15.89-30c1.32-2.48 4.23-3.33 6.51-1.89l0.01-0.01z m13.27 54.72c1.3-2.47 0.53-5.62-1.73-7.04l-27.33-17.19c-2.27-1.42-5.16-0.58-6.47 1.89-1.3 2.47-0.53 5.62 1.73 7.04l27.33 17.18c2.26 1.42 5.15 0.58 6.46-1.88h0.01z m-110.31-53.89c-1.08 0.68-1.87 1.79-2.2 3.11-0.32 1.31-0.15 2.71 0.47 3.89l15.73 29.58c1.34 2.37 4.16 3.15 6.37 1.76s3.01-4.44 1.8-6.89L529 680.83c-1.31-2.44-4.18-3.27-6.44-1.86z m-13.12 53.95a5.483 5.483 0 0 1-0.47-3.86c0.32-1.3 1.1-2.41 2.18-3.09l27.04-16.94c1.44-0.94 3.24-0.96 4.71-0.05 1.46 0.91 2.37 2.6 2.36 4.44-0.01 1.83-0.92 3.52-2.39 4.42l-27.03 16.94c-2.25 1.4-5.11 0.56-6.4-1.86z m-150.73-20.75c0.29-1.19 1-2.21 1.98-2.83 0.98-0.62 2.15-0.79 3.25-0.47l55.53 16.28c2.23 0.71 3.54 3.24 2.94 5.69-0.6 2.45-2.88 3.93-5.15 3.34l-55.54-16.28c-2.29-0.68-3.64-3.24-3.02-5.73z m118.91-0.52c0.61 2.49-0.74 5.05-3.03 5.72l-55.57 16.27c-2.26 0.59-4.55-0.89-5.15-3.34-0.6-2.45 0.71-4.97 2.94-5.69l55.57-16.27c2.28-0.66 4.62 0.81 5.23 3.29v0.02z m-61.33 17.54c0.98-0.62 2.15-0.79 3.24-0.46 1.1 0.32 2.03 1.1 2.6 2.17l28.77 54.44c1.19 2.22 0.49 5.07-1.56 6.36s-4.66 0.53-5.85-1.69l-28.77-54.44c-1.17-2.23-0.48-5.08 1.57-6.38z m0.57-64.82h2.34c0.84 0 1.65 0.37 2.25 1.01 0.59 0.65 0.93 1.53 0.93 2.45v65.4c0 0.91-0.33 1.79-0.93 2.45-0.6 0.64-1.41 1.01-2.25 1.01h-2.34c-0.84 0-1.65-0.36-2.25-1.01-0.6-0.65-0.93-1.53-0.93-2.45v-65.4c0-0.91 0.33-1.8 0.93-2.45 0.6-0.65 1.41-1.01 2.25-1.01z m3.34 64.98c2.04 1.31 2.73 4.17 1.54 6.41l-28.79 54.8c-0.56 1.08-1.49 1.87-2.58 2.2a3.95 3.95 0 0 1-3.24-0.46c-2.05-1.32-2.73-4.18-1.55-6.41l28.8-54.81c0.55-1.08 1.48-1.87 2.58-2.19 1.09-0.33 2.26-0.16 3.25 0.45v0.01z m-23.45-51.17c0.73-0.8 1.72-1.24 2.75-1.24s2.02 0.44 2.75 1.24l18.33 19.97c1.01 1.07 1.41 2.64 1.06 4.12-0.36 1.48-1.42 2.63-2.78 3.02-1.36 0.39-2.81-0.05-3.78-1.15l-18.33-19.97c-1.52-1.66-1.52-4.34 0-5.99z m42.34 0.16c-0.72-0.79-1.7-1.23-2.72-1.23s-2 0.44-2.72 1.23l-18.18 19.82c-0.99 1.06-1.38 2.61-1.02 4.06 0.35 1.46 1.4 2.6 2.74 2.99 1.33 0.38 2.76-0.04 3.73-1.1l18.18-19.82c1.49-1.65 1.49-4.31-0.01-5.95z m-64.34 90.91c0.26 1.08 0.9 1.99 1.78 2.54 0.88 0.56 1.93 0.7 2.91 0.42l24.76-7.3c2.05-0.61 3.27-2.91 2.72-5.15-0.26-1.07-0.9-1.99-1.78-2.54s-1.93-0.7-2.91-0.41l-24.76 7.3c-2.05 0.6-3.28 2.9-2.72 5.14z m36.27 22.63c-0.98 0.29-2.02 0.14-2.89-0.41-0.87-0.55-1.51-1.46-1.77-2.52l-6.52-26.81c-0.54-2.23 0.67-4.51 2.71-5.11a3.54 3.54 0 0 1 2.9 0.41c0.87 0.55 1.51 1.46 1.77 2.52l6.52 26.81c0.53 2.23-0.69 4.51-2.72 5.11z m48.49-23.13c-0.25 1.07-0.89 1.98-1.76 2.54-0.87 0.55-1.92 0.7-2.9 0.42l-24.54-7.29c-2.04-0.62-3.24-2.91-2.7-5.14 0.25-1.07 0.88-1.98 1.76-2.54a3.5 3.5 0 0 1 2.9-0.42l24.53 7.29c2.04 0.62 3.24 2.91 2.71 5.14z m-35.94 22.6c0.97 0.29 2 0.14 2.87-0.41 0.87-0.55 1.5-1.46 1.74-2.52l6.47-26.77c0.54-2.21-0.66-4.49-2.68-5.1-0.97-0.29-2.01-0.14-2.87 0.42-0.87 0.55-1.5 1.46-1.75 2.52l-6.46 26.77c-0.54 2.21 0.64 4.48 2.67 5.1h0.01z m33.05-98.8c1.86 1.17 2.49 3.76 1.42 5.78l-12.96 24.46c-0.69 1.31-1.98 2.12-3.37 2.12-1.39-0.01-2.67-0.81-3.36-2.12a4.58 4.58 0 0 1 0-4.23l12.94-24.46c0.52-0.97 1.36-1.68 2.36-1.97 0.99-0.3 2.05-0.14 2.95 0.42h0.02z m10.82 44.61c1.07-2.01 0.44-4.58-1.41-5.74l-22.27-14.01c-1.85-1.12-4.17-0.42-5.22 1.57-1.06 1.99-0.45 4.53 1.36 5.71l22.27 14.01c1.84 1.15 4.18 0.46 5.24-1.53h0.03z m-89.89-43.96c-0.88 0.56-1.52 1.47-1.79 2.54s-0.13 2.21 0.38 3.17l12.8 24.12c1.06 2 3.41 2.69 5.25 1.53 1.84-1.15 2.47-3.71 1.41-5.72l-12.82-24.11c-1.06-1.99-3.4-2.67-5.23-1.53z m-10.7 43.98c-0.51-0.95-0.64-2.08-0.38-3.14s0.9-1.97 1.78-2.52l22.02-13.81c1.82-1.15 4.15-0.47 5.21 1.51 1.06 1.98 0.43 4.52-1.39 5.67l-22.02 13.82c-1.83 1.14-4.16 0.46-5.22-1.53z m74.26 111.38c0.23-0.95 0.8-1.76 1.58-2.26 0.78-0.49 1.71-0.62 2.59-0.37l44.23 12.95c1.82 0.53 2.91 2.57 2.41 4.55-0.49 1.98-2.36 3.16-4.18 2.63l-44.24-12.95c-1.81-0.54-2.89-2.56-2.4-4.54l0.01-0.01z m94.71-0.42c0.24 0.95 0.12 1.97-0.33 2.82-0.46 0.86-1.2 1.48-2.08 1.74l-44.27 12.94c-1.82 0.53-3.69-0.64-4.18-2.63-0.49-1.98 0.59-4.02 2.41-4.55l44.27-12.94c0.87-0.26 1.8-0.13 2.59 0.36 0.79 0.5 1.36 1.31 1.59 2.26z m-48.85 13.96c0.78-0.49 1.71-0.63 2.59-0.37 0.87 0.25 1.62 0.87 2.07 1.73l22.91 43.32c0.65 1.15 0.67 2.59 0.06 3.76-0.61 1.18-1.75 1.9-2.99 1.89-1.24-0.01-2.37-0.75-2.97-1.93l-22.91-43.31c-0.94-1.77-0.39-4.04 1.24-5.07v-0.02z m0.81-51.53h1.24c0.75 0 1.47 0.32 2 0.9 0.53 0.58 0.83 1.36 0.83 2.18v51.29c0 1.7-1.27 3.08-2.83 3.08h-1.24c-1.56-0.01-2.82-1.38-2.83-3.08v-51.28c0-1.7 1.27-3.07 2.83-3.07v-0.02z m2.31 51.66c1.62 1.05 2.18 3.32 1.23 5.1l-22.94 43.59c-0.44 0.86-1.18 1.48-2.05 1.74-0.87 0.26-1.8 0.13-2.59-0.36-1.62-1.04-2.17-3.32-1.23-5.1l22.93-43.59c0.44-0.86 1.19-1.48 2.06-1.74a3.16 3.16 0 0 1 2.59 0.36z m-18.69-40.7c0.58-0.63 1.37-0.99 2.19-0.99s1.61 0.35 2.19 0.99l14.6 15.88c1.21 1.32 1.21 3.45 0 4.77-1.21 1.32-3.17 1.32-4.38-0.01l-14.6-15.88c-0.58-0.63-0.91-1.49-0.91-2.38 0-0.89 0.33-1.75 0.91-2.38z m33.72 0.13c-1.2-1.3-3.14-1.3-4.34 0l-14.48 15.76c-1.15 1.32-1.13 3.39 0.05 4.67 1.18 1.29 3.08 1.31 4.29 0.06l14.48-15.76c1.21-1.31 1.21-3.42 0-4.73z m-51.25 72.32c0.21 0.86 0.72 1.59 1.42 2.03 0.71 0.44 1.54 0.56 2.33 0.33l19.72-5.81c1.62-0.49 2.6-2.3 2.17-4.08-0.21-0.86-0.72-1.59-1.42-2.03-0.71-0.44-1.54-0.56-2.33-0.32l-19.72 5.81c-1.63 0.47-2.59 2.29-2.17 4.07z m28.9 18c-0.78 0.23-1.61 0.11-2.3-0.32-0.7-0.44-1.2-1.17-1.41-2.01l-5.2-21.33c-0.43-1.77 0.53-3.59 2.15-4.06 0.78-0.23 1.61-0.11 2.3 0.33 0.7 0.44 1.21 1.16 1.41 2.01l5.2 21.32c0.43 1.77-0.53 3.58-2.15 4.06z m38.62-18.4c-0.2 0.85-0.71 1.58-1.4 2.02-0.7 0.44-1.52 0.56-2.3 0.33l-19.54-5.8c-1.62-0.49-2.58-2.31-2.15-4.08 0.2-0.85 0.71-1.58 1.4-2.02 0.7-0.44 1.53-0.56 2.31-0.33l19.53 5.8c1.61 0.49 2.57 2.31 2.15 4.08z m-28.63 17.98c0.77 0.23 1.6 0.11 2.29-0.33s1.19-1.16 1.39-2l5.15-21.3c0.43-1.76-0.52-3.57-2.14-4.06-0.77-0.23-1.6-0.11-2.29 0.33s-1.19 1.16-1.39 2l-5.15 21.3c-0.42 1.77 0.53 3.57 2.14 4.06z m26.33-78.59c0.72 0.45 1.23 1.19 1.45 2.05 0.21 0.86 0.1 1.78-0.31 2.55l-10.32 19.47c-0.85 1.61-2.74 2.16-4.23 1.24-1.48-0.93-1.99-2.99-1.14-4.6l10.32-19.46c0.41-0.78 1.09-1.35 1.88-1.58 0.79-0.24 1.64-0.12 2.35 0.33z m8.61 35.49c0.85-1.6 0.35-3.64-1.12-4.57l-17.74-11.14c-1.47-0.87-3.3-0.31-4.13 1.26-0.83 1.57-0.36 3.58 1.06 4.53l17.74 11.14c1.46 0.92 3.34 0.37 4.19-1.22z m-71.59-34.98c-0.7 0.44-1.22 1.17-1.43 2.02-0.21 0.85-0.1 1.76 0.31 2.52l10.21 19.19c0.87 1.51 2.7 2.01 4.12 1.11 1.42-0.89 1.95-2.85 1.18-4.44l-10.21-19.18c-0.86-1.59-2.72-2.13-4.18-1.22z m-8.52 34.99c-0.41-0.76-0.52-1.66-0.31-2.5 0.21-0.85 0.71-1.57 1.41-2l17.55-10.99c1.45-0.92 3.3-0.38 4.14 1.2 0.84 1.58 0.34 3.59-1.1 4.51l-17.54 10.99c-1.45 0.9-3.31 0.37-4.15-1.21z m-6.48-19.91c0.23-0.95 0.8-1.76 1.58-2.25s1.71-0.63 2.59-0.37l44.24 12.95c1.82 0.53 2.91 2.56 2.42 4.55-0.49 1.99-2.36 3.16-4.18 2.63l-44.24-12.95c-1.81-0.54-2.89-2.56-2.4-4.54v-0.02z m94.71-0.42c0.24 0.95 0.12 1.97-0.33 2.82-0.45 0.86-1.2 1.48-2.08 1.74l-44.27 12.94c-1.82 0.53-3.69-0.64-4.18-2.63-0.49-1.98 0.59-4.02 2.41-4.55l44.27-12.94c0.87-0.26 1.8-0.13 2.59 0.36 0.79 0.5 1.36 1.31 1.59 2.26z m-48.85 13.96c0.78-0.49 1.71-0.62 2.59-0.37 0.87 0.25 1.62 0.88 2.07 1.73l22.91 43.31c0.65 1.15 0.67 2.59 0.06 3.76-0.61 1.18-1.75 1.9-2.99 1.89-1.24-0.01-2.37-0.75-2.97-1.93l-22.91-43.31c-0.94-1.77-0.39-4.04 1.24-5.07v-0.01z m0.81-51.53h1.24c0.75 0 1.47 0.33 2 0.91 0.53 0.58 0.83 1.36 0.83 2.17v51.29c0 1.7-1.27 3.08-2.83 3.08h-1.24c-1.56 0-2.82-1.38-2.82-3.08v-51.28c0-0.82 0.3-1.6 0.83-2.17 0.53-0.58 1.25-0.91 2-0.9l-0.01-0.02z m2.3 51.67c1.62 1.05 2.18 3.32 1.23 5.1l-22.94 43.6c-0.44 0.85-1.18 1.48-2.05 1.74-0.87 0.26-1.8 0.13-2.59-0.36-1.62-1.05-2.17-3.32-1.23-5.1l22.94-43.6c0.44-0.85 1.18-1.48 2.06-1.74 0.87-0.27 1.81-0.14 2.58 0.36z m-18.68-40.7c0.58-0.63 1.37-0.99 2.19-0.99 0.82 0 1.61 0.36 2.19 0.99l14.6 15.88c0.78 0.85 1.08 2.09 0.8 3.26-0.29 1.16-1.12 2.07-2.19 2.38-1.07 0.31-2.21-0.02-2.99-0.87l-14.6-15.88c-0.58-0.63-0.91-1.49-0.91-2.39 0-0.9 0.33-1.76 0.91-2.38z m33.72 0.13c-1.2-1.31-3.14-1.31-4.34 0l-14.48 15.76c-1.15 1.31-1.13 3.39 0.05 4.67 1.18 1.29 3.08 1.31 4.29 0.06l14.48-15.76c0.58-0.63 0.9-1.48 0.9-2.37 0-0.89-0.32-1.74-0.9-2.36z m-51.25 72.31c0.21 0.86 0.72 1.59 1.42 2.03 0.71 0.44 1.54 0.56 2.33 0.33l19.72-5.81c1.62-0.49 2.6-2.3 2.17-4.08-0.21-0.86-0.72-1.59-1.42-2.03-0.71-0.44-1.54-0.56-2.33-0.32l-19.72 5.81c-1.63 0.47-2.59 2.29-2.17 4.07z m28.9 18c-0.78 0.23-1.61 0.11-2.3-0.32-0.7-0.44-1.2-1.17-1.41-2.01l-5.2-21.33c-0.43-1.77 0.53-3.59 2.15-4.06 0.78-0.23 1.61-0.11 2.3 0.33 0.7 0.44 1.21 1.16 1.41 2.01l5.2 21.32c0.43 1.77-0.53 3.58-2.15 4.06z m38.62-18.4c-0.2 0.85-0.71 1.58-1.4 2.02-0.7 0.44-1.52 0.56-2.3 0.33l-19.54-5.8c-1.62-0.49-2.58-2.31-2.15-4.08 0.2-0.85 0.71-1.58 1.4-2.02 0.7-0.44 1.53-0.56 2.31-0.33l19.53 5.8c1.61 0.49 2.57 2.31 2.15 4.08z m-28.63 17.98c0.77 0.23 1.6 0.11 2.29-0.33s1.19-1.16 1.39-2l5.15-21.3c0.43-1.76-0.52-3.57-2.14-4.06-0.77-0.23-1.6-0.11-2.29 0.33s-1.19 1.16-1.39 2l-5.15 21.3c-0.42 1.77 0.53 3.57 2.14 4.06z m26.33-78.59c0.72 0.45 1.23 1.19 1.45 2.05 0.21 0.86 0.1 1.78-0.31 2.55l-10.32 19.47c-0.85 1.61-2.74 2.16-4.23 1.24-1.48-0.93-1.99-2.99-1.14-4.6l10.32-19.46c0.41-0.78 1.09-1.35 1.88-1.58 0.79-0.24 1.64-0.12 2.35 0.33z m8.61 35.49c0.85-1.6 0.35-3.64-1.12-4.57l-17.74-11.14c-1.47-0.87-3.3-0.31-4.13 1.26-0.83 1.57-0.36 3.58 1.06 4.53l17.74 11.14c1.46 0.92 3.34 0.37 4.19-1.22z m-71.59-34.98c-0.7 0.44-1.22 1.17-1.43 2.02-0.21 0.85-0.1 1.76 0.31 2.52l10.21 19.19c0.87 1.51 2.7 2.01 4.12 1.11 1.42-0.89 1.95-2.85 1.18-4.44l-10.21-19.18c-0.86-1.59-2.72-2.13-4.18-1.22z m-8.52 34.99c-0.41-0.76-0.52-1.66-0.31-2.5 0.21-0.85 0.71-1.57 1.41-2l17.55-10.99c1.45-0.92 3.3-0.38 4.14 1.2 0.84 1.58 0.34 3.59-1.1 4.51l-17.54 10.99c-1.45 0.9-3.31 0.37-4.15-1.21z m39.38-6.37c0.78-0.49 1.72-0.62 2.59-0.37 0.87 0.25 1.62 0.88 2.07 1.73l22.91 43.31c0.65 1.15 0.67 2.59 0.06 3.76-0.61 1.18-1.75 1.9-2.99 1.89-1.24-0.01-2.37-0.75-2.97-1.93l-22.91-43.31c-0.94-1.77-0.39-4.04 1.24-5.07v-0.01z m-15.57-40.57c0.58-0.63 1.37-0.99 2.19-0.99s1.61 0.35 2.19 0.99l14.6 15.88c0.78 0.85 1.09 2.09 0.8 3.26-0.29 1.16-1.12 2.07-2.19 2.38-1.07 0.31-2.21-0.02-2.99-0.88l-14.6-15.88c-0.58-0.64-0.91-1.49-0.91-2.38 0-0.89 0.33-1.75 0.91-2.38z m0 0" fill="#7ECEF4" p-id="3734"></path><path d="M885.87 431.74c-8.7-51.6-62.87-101.16-125.77-97.95-20.55 1.15-17.18 4.64-17.18 4.64s108.3 9.44 135.31 122.76c2.93 12.62 10.31-13.61 7.64-29.45z m0 0" fill="#FFCC00" p-id="3735"></path></svg>